<?xml version="1.0" standalone="no"?>
<!DOCTYPE svg PUBLIC "-//W3C//DTD SVG 20010904//EN"
 "http://www.w3.org/TR/2001/REC-SVG-20010904/DTD/svg10.dtd">
<svg version="1.0" xmlns="http://www.w3.org/2000/svg"
 width="297.000000pt" height="297.000000pt" viewBox="0 0 297.000000 297.000000"
 preserveAspectRatio="xMidYMid meet">
<metadata>
Created by potrace 1.11, written by Peter Selinger 2001-2013
</metadata>
<g transform="translate(0.000000,297.000000) scale(0.100000,-0.100000)"
fill="#000000" stroke="none">
<path d="M2184 2864 c-21 -7 -54 -30 -71 -50 -30 -34 -33 -44 -34 -103 0 -36
-1 -202 -3 -368 -1 -167 -5 -305 -7 -307 -10 -10 -348 -11 -357 -1 -5 6 -69
127 -142 270 -282 552 -262 518 -320 543 -82 34 -196 1 -231 -68 -17 -32 -18
-77 -19 -595 -1 -308 -1 -565 0 -571 0 -7 43 -10 133 -10 l132 1 2 305 c2 168
4 325 5 350 l3 45 69 -135 c38 -74 87 -169 107 -211 21 -42 50 -91 64 -108 32
-37 106 -60 180 -56 28 2 147 4 266 5 229 1 277 7 318 38 56 42 60 60 63 290
2 117 4 212 5 212 2 0 76 -136 131 -240 25 -47 59 -110 76 -140 17 -30 44 -81
60 -112 l29 -57 -21 -53 c-47 -121 -272 -671 -275 -675 -3 -2 -3 126 -2 284 2
269 1 291 -17 331 -14 31 -32 49 -62 64 -45 23 -47 23 -432 18 -309 -4 -319
-11 -364 -237 -16 -82 -31 -159 -33 -173 -3 -14 -19 -95 -35 -180 -17 -85 -33
-166 -36 -180 -13 -75 -77 -394 -79 -396 -1 -1 -101 233 -221 519 -121 287
-324 770 -451 1074 -128 303 -239 558 -246 566 -48 47 -126 65 -195 44 -45
-14 -93 -57 -103 -93 -4 -16 -9 -393 -10 -839 -2 -445 -4 -1023 -5 -1282 l-2
-473 133 0 c99 0 133 3 134 13 2 21 7 974 9 1522 l1 530 38 -90 c37 -86 230
-544 624 -1480 99 -236 188 -437 196 -446 24 -25 76 -49 113 -52 48 -5 116 18
148 48 37 35 25 -16 165 710 47 245 72 370 89 455 2 8 7 35 12 60 4 25 8 47 9
50 1 3 5 26 9 53 l8 47 92 1 c50 0 124 2 164 2 42 1 72 -2 73 -8 1 -5 2 -243
3 -527 l1 -516 25 -27 c50 -54 121 -73 199 -53 61 15 90 56 155 218 32 80 64
159 71 175 7 17 20 48 28 70 9 22 51 128 95 235 44 107 126 310 182 450 l104
255 -46 85 c-25 47 -127 236 -226 422 -100 185 -200 372 -223 415 -23 43 -49
86 -58 97 -39 45 -129 63 -197 40z m136 -69 c14 -9 46 -61 105 -170 26 -49 60
-112 75 -140 15 -27 49 -90 75 -140 104 -195 258 -481 271 -502 8 -12 14 -31
14 -41 0 -16 -27 -90 -65 -177 -7 -16 -79 -194 -160 -395 -276 -683 -293 -724
-314 -746 -38 -39 -125 -38 -164 2 l-22 23 0 543 0 543 -220 -3 c-120 -1 -220
-4 -221 -5 -1 -1 -5 -18 -8 -37 -3 -19 -21 -115 -41 -212 -19 -97 -37 -190
-40 -205 -2 -15 -7 -37 -9 -48 -8 -40 -76 -387 -81 -413 -2 -15 -20 -106 -39
-202 -19 -96 -38 -190 -41 -208 -3 -18 -11 -42 -17 -52 -27 -43 -122 -56 -166
-23 -17 13 -66 117 -163 348 -76 182 -200 474 -274 650 -74 176 -213 507 -309
735 -174 415 -175 415 -203 412 -15 -2 -29 -4 -30 -5 -1 -1 -4 -486 -6 -1077
-3 -591 -6 -1076 -6 -1076 -1 -1 -34 -2 -74 -3 l-72 -2 1 303 c1 167 3 729 5
1251 2 521 7 956 11 967 18 48 120 71 171 37 16 -10 41 -54 72 -129 75 -179
206 -490 221 -523 7 -16 61 -145 119 -285 59 -140 117 -280 130 -310 13 -30
49 -116 81 -190 31 -74 64 -153 73 -175 10 -22 82 -194 161 -382 79 -188 146
-340 149 -337 4 4 51 232 76 365 16 87 69 360 100 514 19 99 38 196 41 215 3
19 12 65 20 101 24 107 18 106 449 110 153 1 228 -2 243 -10 45 -24 46 -35 44
-427 l-3 -372 27 -6 c15 -4 30 -3 34 1 6 7 45 103 282 689 l89 221 -182 339
c-100 186 -184 341 -186 343 -2 3 -16 0 -30 -5 l-27 -9 -3 -265 c-2 -167 -7
-273 -14 -286 -24 -48 -43 -50 -449 -55 -182 -2 -209 -1 -235 15 -24 14 -60
76 -172 294 -114 224 -145 278 -163 280 -12 2 -26 0 -31 -5 -4 -4 -9 -178 -11
-386 -1 -250 -6 -381 -13 -385 -5 -4 -38 -7 -73 -7 l-63 -1 1 538 c2 515 2
538 21 562 19 25 67 42 104 37 56 -6 74 -23 118 -110 25 -47 101 -196 170
-331 69 -135 143 -279 164 -320 l38 -75 225 3 c123 2 226 5 228 7 3 2 6 179 9
392 l4 388 23 24 c37 36 110 44 156 16z"/>
</g>
</svg>
