<?xml version="1.0" standalone="no"?>
<!DOCTYPE svg PUBLIC "-//W3C//DTD SVG 20010904//EN"
 "http://www.w3.org/TR/2001/REC-SVG-20010904/DTD/svg10.dtd">
<svg version="1.0" xmlns="http://www.w3.org/2000/svg"
 width="700.000000pt" height="700.000000pt" viewBox="0 0 700.000000 700.000000"
 preserveAspectRatio="xMidYMid meet">
<metadata>
Created by potrace 1.11, written by Peter Selinger 2001-2013
</metadata>
<g transform="translate(0.000000,700.000000) scale(0.100000,-0.100000)"
fill="#000000" stroke="none">
<path d="M2047 5734 c-1 -1 -45 -4 -97 -8 -543 -36 -1045 -348 -1372 -851
-155 -240 -278 -574 -313 -855 -4 -30 -10 -64 -12 -75 -9 -36 -10 -777 -1
-875 11 -127 33 -253 63 -370 115 -444 364 -820 735 -1113 84 -67 266 -169
391 -221 216 -89 411 -125 679 -126 243 -2 404 44 593 167 83 54 207 176 270
264 60 85 -45 -120 1217 2384 183 363 366 726 407 807 109 215 213 318 385
380 61 22 74 23 398 23 326 0 337 -1 405 -24 239 -80 426 -307 461 -556 17
-122 -3 -289 -47 -391 -24 -58 -87 -154 -142 -217 -140 -162 -240 -288 -263
-332 -72 -131 -64 -318 20 -441 14 -21 101 -115 194 -209 182 -185 204 -211
249 -295 61 -111 78 -185 78 -340 0 -217 -72 -379 -259 -579 -72 -76 -197
-147 -298 -167 -18 -4 -456 -8 -973 -8 -1006 -2 -971 0 -992 -50 -5 -12 -8
-99 -7 -195 l1 -175 27 -23 c19 -16 40 -23 69 -24 292 -3 1844 1 1877 5 333
45 586 226 812 581 115 181 179 398 181 615 1 76 -11 239 -18 251 -2 3 -7 21
-10 40 -10 59 -63 205 -100 280 -66 131 -109 185 -294 374 -76 77 -141 145
-145 152 -4 8 45 74 127 174 74 89 156 197 182 241 80 132 143 311 163 463 9
73 5 299 -7 365 -28 150 -95 329 -161 427 -17 24 -30 47 -30 50 0 8 -99 123
-145 167 -142 137 -316 237 -490 282 -97 25 -110 26 -415 27 -173 1 -346 -2
-385 -6 -269 -26 -546 -197 -711 -437 -29 -41 -180 -329 -337 -640 -156 -311
-413 -820 -570 -1132 -157 -311 -290 -575 -296 -585 -5 -10 -25 -49 -44 -88
-51 -106 -177 -358 -187 -375 -5 -8 -50 -98 -100 -200 -51 -102 -113 -220
-138 -262 -80 -137 -204 -237 -347 -280 -132 -40 -409 -27 -593 28 -48 14 -96
28 -106 32 -43 12 -186 87 -262 137 -250 163 -460 428 -575 723 -31 80 -75
235 -85 300 -3 20 -7 39 -9 42 -11 19 -19 231 -18 520 0 264 4 359 17 450 43
285 157 556 324 770 63 80 249 257 324 306 165 109 344 182 527 214 96 16 176
18 848 19 408 1 749 4 758 7 35 14 43 54 43 224 0 91 -4 175 -9 187 -18 47
-11 47 -757 48 -387 0 -704 0 -705 -1z"/>
</g>
</svg>
