<svg width="99" height="84" viewBox="0 0 99 84" fill="none" xmlns="http://www.w3.org/2000/svg">
<path d="M2 23V23.5H2.5H97H97.5V23V6.5C97.5 4.01472 95.4853 2 93 2H6.5C4.0148 2 2 4.01523 2 6.5006V23ZM2.5 24.5H2V25V77.9957C2 80.4816 4.01532 82.5 6.5 82.5H93C95.4853 82.5 97.5 80.4853 97.5 78V25V24.5H97H2.5ZM1 6.5006C1 3.46311 3.46236 1 6.5 1H93C96.0376 1 98.5 3.46243 98.5 6.5V78C98.5 81.0376 96.0376 83.5 93 83.5H6.5C3.4619 83.5 1 81.0327 1 77.9957V6.5006ZM13 9.5C11.067 9.5 9.5 11.067 9.5 13C9.5 14.933 11.067 16.5 13 16.5H15C15.2761 16.5 15.5 16.7239 15.5 17C15.5 17.2761 15.2761 17.5 15 17.5H13C10.5147 17.5 8.5 15.4853 8.5 13C8.5 10.5147 10.5147 8.5 13 8.5H55.5C57.9853 8.5 60 10.5147 60 13C60 15.4853 57.9853 17.5 55.5 17.5H34C33.7239 17.5 33.5 17.2761 33.5 17C33.5 16.7239 33.7239 16.5 34 16.5H55.5C57.433 16.5 59 14.933 59 13C59 11.067 57.433 9.5 55.5 9.5H13ZM22 16.5H27C27.2761 16.5 27.5 16.7239 27.5 17C27.5 17.2761 27.2761 17.5 27 17.5H22C21.7239 17.5 21.5 17.2761 21.5 17C21.5 16.7239 21.7239 16.5 22 16.5Z" fill="white" stroke="white"/>
<circle cx="69.5" cy="13.5" r="2.5" fill="white"/>
<circle cx="79.5" cy="13.5" r="2.5" fill="white"/>
<circle cx="89.5" cy="13.5" r="2.5" fill="white"/>
<mask id="path-5-inside-1" fill="white">
<path d="M51.3472 56.9358L53.1441 55.118C53.5292 54.7284 53.5292 54.1016 53.1441 53.712L50.3584 50.894C49.967 50.498 49.3275 50.498 48.9361 50.894L47.1555 52.6952C47.0546 52.651 46.9516 52.6075 46.8448 52.5648V50C46.8448 49.4477 46.3971 49 45.8448 49H44.6207V36.25C44.6207 32.8 36.4158 31 28.3103 31C20.2048 31 12 32.8 12 36.25V70.75C12 74.2 20.2048 76 28.3103 76C35.8049 76 43.3789 74.4573 44.4791 71.5H45.8448C46.3971 71.5 46.8448 71.0523 46.8448 70.5V67.9353C46.9516 67.8925 47.0546 67.849 47.1555 67.8048L48.9361 69.606C49.3275 70.002 49.967 70.002 50.3584 69.606L53.1442 66.7879C53.5292 66.3984 53.5293 65.7716 53.1443 65.382L51.3472 63.5635C51.3917 63.4622 51.434 63.358 51.4762 63.25H54C54.5523 63.25 55 62.8023 55 62.25V58.25C55 57.6977 54.5523 57.25 54 57.25H51.4762C51.434 57.142 51.3917 57.0378 51.3472 56.9358ZM28.3103 32.5C37.3618 32.5 43.1379 34.7207 43.1379 36.25C43.1379 37.7793 37.3618 40 28.3103 40C19.2588 40 13.4828 37.7793 13.4828 36.25C13.4828 34.7207 19.2588 32.5 28.3103 32.5ZM13.4828 38.575C16.2066 40.5025 22.2844 41.5 28.3103 41.5C34.3363 41.5 40.4141 40.5025 43.1379 38.575V44.5C43.1379 46.0293 37.3618 48.25 28.3103 48.25C19.2588 48.25 13.4828 46.0293 13.4828 44.5V38.575ZM28.3103 74.5C19.2588 74.5 13.4828 72.2793 13.4828 70.75V64.825C16.2066 66.7525 22.2844 67.75 28.3103 67.75C29.8383 67.75 31.3552 67.6863 32.8216 67.561L32.6956 66.0655C31.2759 66.1878 29.7968 66.25 28.3103 66.25C19.2588 66.25 13.4828 64.0293 13.4828 62.5V55.825C16.2066 57.7525 22.2844 58.75 28.3103 58.75C29.3223 58.75 30.3373 58.7215 31.3278 58.666L31.2455 57.166C30.2824 57.2223 29.2949 57.25 28.3103 57.25C19.2588 57.25 13.4828 55.0293 13.4828 53.5V46.825C16.2066 48.7525 22.2844 49.75 28.3103 49.75C34.3363 49.75 40.4141 48.7525 43.1379 46.825V49H41.9138C41.3615 49 40.9138 49.4477 40.9138 50V52.5648C40.807 52.6075 40.704 52.651 40.6032 52.6952L38.8226 50.894C38.4311 50.498 37.7916 50.498 37.4002 50.894L34.6145 53.712C34.2295 54.1016 34.2295 54.7284 34.6145 55.118L36.4114 56.9358C36.3669 57.0378 36.3247 57.142 36.2824 57.25H33.7586C33.2063 57.25 32.7586 57.6977 32.7586 58.25V62.25C32.7586 62.8023 33.2063 63.25 33.7586 63.25H36.2824C36.3247 63.358 36.3669 63.4622 36.4114 63.5635L34.6143 65.382C34.2293 65.7716 34.2294 66.3984 34.6144 66.7879L37.4002 69.606C37.7916 70.002 38.4311 70.002 38.8226 69.606L40.6032 67.8048C40.704 67.849 40.807 67.8925 40.9138 67.9353V70.5C40.9138 71.0523 41.3615 71.5 41.9138 71.5H42.7161C41.2548 72.9145 35.9599 74.5 28.3103 74.5ZM53.5172 61.75H50.4116L50.2463 62.2705C50.1312 62.6456 49.981 63.0088 49.7977 63.355L49.5308 63.8478L51.7416 66.085L49.6472 68.2045L47.4379 65.9665L46.9508 66.2373C46.6088 66.4232 46.2498 66.5751 45.8788 66.691L45.3621 66.859V70H42.3966V66.859L41.8828 66.691C41.5118 66.5751 41.1528 66.4232 40.8107 66.2373L40.3237 65.9665L38.1114 68.2045L36.0207 66.085L38.2278 63.85L37.9609 63.3573C37.7776 63.011 37.6274 62.6479 37.5123 62.2727L37.347 61.75H34.2414V58.75H37.347L37.5123 58.2295C37.6274 57.8544 37.7776 57.4912 37.9609 57.145L38.2278 56.6523L36.0207 54.415L38.1151 52.2955L40.3207 54.5335L40.8078 54.2628C41.1498 54.0768 41.5088 53.9249 41.8798 53.809L42.3966 53.641V50.5H45.3621V53.641L45.8758 53.809C46.2468 53.9249 46.6059 54.0768 46.9479 54.2628L47.435 54.5335L49.6472 52.2955L51.7416 54.415L49.5308 56.65L49.7977 57.1427C49.981 57.489 50.1312 57.8521 50.2463 58.2273L50.4116 58.7478H53.5172V61.75Z"/>
</mask>
<path d="M51.3472 56.9358L53.1441 55.118C53.5292 54.7284 53.5292 54.1016 53.1441 53.712L50.3584 50.894C49.967 50.498 49.3275 50.498 48.9361 50.894L47.1555 52.6952C47.0546 52.651 46.9516 52.6075 46.8448 52.5648V50C46.8448 49.4477 46.3971 49 45.8448 49H44.6207V36.25C44.6207 32.8 36.4158 31 28.3103 31C20.2048 31 12 32.8 12 36.25V70.75C12 74.2 20.2048 76 28.3103 76C35.8049 76 43.3789 74.4573 44.4791 71.5H45.8448C46.3971 71.5 46.8448 71.0523 46.8448 70.5V67.9353C46.9516 67.8925 47.0546 67.849 47.1555 67.8048L48.9361 69.606C49.3275 70.002 49.967 70.002 50.3584 69.606L53.1442 66.7879C53.5292 66.3984 53.5293 65.7716 53.1443 65.382L51.3472 63.5635C51.3917 63.4622 51.434 63.358 51.4762 63.25H54C54.5523 63.25 55 62.8023 55 62.25V58.25C55 57.6977 54.5523 57.25 54 57.25H51.4762C51.434 57.142 51.3917 57.0378 51.3472 56.9358ZM28.3103 32.5C37.3618 32.5 43.1379 34.7207 43.1379 36.25C43.1379 37.7793 37.3618 40 28.3103 40C19.2588 40 13.4828 37.7793 13.4828 36.25C13.4828 34.7207 19.2588 32.5 28.3103 32.5ZM13.4828 38.575C16.2066 40.5025 22.2844 41.5 28.3103 41.5C34.3363 41.5 40.4141 40.5025 43.1379 38.575V44.5C43.1379 46.0293 37.3618 48.25 28.3103 48.25C19.2588 48.25 13.4828 46.0293 13.4828 44.5V38.575ZM28.3103 74.5C19.2588 74.5 13.4828 72.2793 13.4828 70.75V64.825C16.2066 66.7525 22.2844 67.75 28.3103 67.75C29.8383 67.75 31.3552 67.6863 32.8216 67.561L32.6956 66.0655C31.2759 66.1878 29.7968 66.25 28.3103 66.25C19.2588 66.25 13.4828 64.0293 13.4828 62.5V55.825C16.2066 57.7525 22.2844 58.75 28.3103 58.75C29.3223 58.75 30.3373 58.7215 31.3278 58.666L31.2455 57.166C30.2824 57.2223 29.2949 57.25 28.3103 57.25C19.2588 57.25 13.4828 55.0293 13.4828 53.5V46.825C16.2066 48.7525 22.2844 49.75 28.3103 49.75C34.3363 49.75 40.4141 48.7525 43.1379 46.825V49H41.9138C41.3615 49 40.9138 49.4477 40.9138 50V52.5648C40.807 52.6075 40.704 52.651 40.6032 52.6952L38.8226 50.894C38.4311 50.498 37.7916 50.498 37.4002 50.894L34.6145 53.712C34.2295 54.1016 34.2295 54.7284 34.6145 55.118L36.4114 56.9358C36.3669 57.0378 36.3247 57.142 36.2824 57.25H33.7586C33.2063 57.25 32.7586 57.6977 32.7586 58.25V62.25C32.7586 62.8023 33.2063 63.25 33.7586 63.25H36.2824C36.3247 63.358 36.3669 63.4622 36.4114 63.5635L34.6143 65.382C34.2293 65.7716 34.2294 66.3984 34.6144 66.7879L37.4002 69.606C37.7916 70.002 38.4311 70.002 38.8226 69.606L40.6032 67.8048C40.704 67.849 40.807 67.8925 40.9138 67.9353V70.5C40.9138 71.0523 41.3615 71.5 41.9138 71.5H42.7161C41.2548 72.9145 35.9599 74.5 28.3103 74.5ZM53.5172 61.75H50.4116L50.2463 62.2705C50.1312 62.6456 49.981 63.0088 49.7977 63.355L49.5308 63.8478L51.7416 66.085L49.6472 68.2045L47.4379 65.9665L46.9508 66.2373C46.6088 66.4232 46.2498 66.5751 45.8788 66.691L45.3621 66.859V70H42.3966V66.859L41.8828 66.691C41.5118 66.5751 41.1528 66.4232 40.8107 66.2373L40.3237 65.9665L38.1114 68.2045L36.0207 66.085L38.2278 63.85L37.9609 63.3573C37.7776 63.011 37.6274 62.6479 37.5123 62.2727L37.347 61.75H34.2414V58.75H37.347L37.5123 58.2295C37.6274 57.8544 37.7776 57.4912 37.9609 57.145L38.2278 56.6523L36.0207 54.415L38.1151 52.2955L40.3207 54.5335L40.8078 54.2628C41.1498 54.0768 41.5088 53.9249 41.8798 53.809L42.3966 53.641V50.5H45.3621V53.641L45.8758 53.809C46.2468 53.9249 46.6059 54.0768 46.9479 54.2628L47.435 54.5335L49.6472 52.2955L51.7416 54.415L49.5308 56.65L49.7977 57.1427C49.981 57.489 50.1312 57.8521 50.2463 58.2273L50.4116 58.7478H53.5172V61.75Z" fill="white" stroke="white" stroke-width="0.6" mask="url(#path-5-inside-1)"/>
<path d="M43.8796 56.399H43.8794C43.1263 56.399 42.3901 56.625 41.764 57.0482C41.1379 57.4713 40.6502 58.0727 40.3622 58.7761C40.0742 59.4794 39.9989 60.2533 40.1457 60.9999C40.2925 61.7465 40.6548 62.4325 41.1872 62.971C41.7195 63.5095 42.3978 63.8764 43.1365 64.025C43.8752 64.1736 44.6409 64.0973 45.3367 63.8058C46.0324 63.5143 46.6269 63.0206 47.0451 62.3875C47.4632 61.7544 47.6863 61.0102 47.6863 60.249V60.2489C47.6851 59.2286 47.284 58.2502 46.5704 57.5284C45.8569 56.8065 44.8892 56.4002 43.8796 56.399ZM43.8794 62.399C43.4596 62.399 43.0491 62.2731 42.6998 62.037C42.3505 61.8009 42.0781 61.4652 41.9172 61.0722C41.7562 60.6792 41.7141 60.2466 41.7962 59.8294C41.8782 59.4121 42.0807 59.0289 42.3779 58.7283C42.675 58.4277 43.0534 58.2232 43.4653 58.1403C43.8771 58.0574 44.3039 58.0999 44.6919 58.2625C45.0799 58.4251 45.4118 58.7005 45.6453 59.0541C45.8789 59.4077 46.0036 59.8235 46.0036 60.249C46.0036 60.8196 45.7795 61.3666 45.381 61.7697C44.9826 62.1728 44.4424 62.399 43.8794 62.399Z" fill="white" stroke="white" stroke-width="0.2"/>
<path d="M53.2667 43.0382L53.2956 43.151H53.412H54.8501V44.351H53.412H53.2956L53.2667 44.4637C53.2014 44.7187 53.1007 44.9629 52.9676 45.1892L52.9092 45.2886L52.9902 45.3706L54.01 46.4029L53.1726 47.2501L52.1553 46.2203L52.0724 46.1364L51.9713 46.1972C51.7478 46.3317 51.5067 46.4334 51.2551 46.4994L51.1432 46.5287V46.6445V48.101H49.9604V46.6445V46.5287L49.8485 46.4994C49.5969 46.4334 49.3557 46.3317 49.1323 46.1972L49.0312 46.1364L48.9482 46.2203L47.931 47.2501L47.0936 46.4029L48.1133 45.3706L48.1944 45.2886L48.1359 45.1892C48.0029 44.9629 47.9022 44.7187 47.8369 44.4637L47.808 44.351H47.6915H46.2535V43.151H47.6915H47.808L47.8369 43.0382C47.9022 42.7833 48.0029 42.539 48.1359 42.3128L48.1944 42.2134L48.1133 42.1313L47.0936 41.099L47.931 40.2519L48.9482 41.2816L49.0312 41.3656L49.1323 41.3048C49.3557 41.1703 49.5969 41.0686 49.8485 41.0026L49.9604 40.9732V40.8575V39.401H51.1432V40.8575V40.9732L51.2551 41.0026C51.5067 41.0686 51.7478 41.1703 51.9713 41.3048L52.0724 41.3656L52.1553 41.2816L53.1726 40.2519L54.01 41.099L52.9902 42.1313L52.9092 42.2134L52.9676 42.3128C53.1007 42.539 53.2014 42.7833 53.2667 43.0382ZM49.644 45.1225C49.9126 45.304 50.2285 45.401 50.5518 45.401C50.9854 45.401 51.4009 45.2267 51.7069 44.9171C52.0129 44.6075 52.1845 44.188 52.1845 43.751C52.1845 43.425 52.089 43.1062 51.9098 42.835C51.7306 42.5636 51.4757 42.3519 51.1772 42.2268C50.8786 42.1017 50.55 42.0689 50.2329 42.1327C49.9159 42.1965 49.6249 42.354 49.3966 42.5849C49.1684 42.8157 49.0132 43.1097 48.9503 43.4294C48.8875 43.7491 48.9197 44.0806 49.0431 44.3818C49.1665 44.6831 49.3755 44.9409 49.644 45.1225Z" fill="white" stroke="white" stroke-width="0.3"/>
<path d="M66.6078 51.5685L66.6141 51.5645L66.62 51.56C67.4647 50.9265 68 49.9697 68 48.9V46C68 43.3105 70.1105 41.2 72.8 41.2H75.6V42.8H72.8C70.9895 42.8 69.6 44.1895 69.6 46V48.9C69.6 50.5344 68.8326 51.9699 67.4918 52.8318L67.2301 53L67.4918 53.1682C68.8308 54.029 69.6 55.5634 69.6 57.1V60C69.6 61.8105 70.9895 63.2 72.8 63.2H75.6V64.8H72.8C70.1105 64.8 68 62.6895 68 60V57.1C68 56.0303 67.4647 55.0735 66.62 54.44L66.6141 54.4355L66.6078 54.4315L64.371 53L66.6078 51.5685Z" fill="white" stroke="white" stroke-width="0.4"/>
<path d="M84.8 42.8H82V41.2H84.8C87.4896 41.2 89.6 43.3105 89.6 46V48.9C89.6 49.9697 90.1354 50.9265 90.98 51.56L90.986 51.5645L90.9922 51.5685L93.229 53L90.9922 54.4315L90.986 54.4355L90.98 54.44C90.1354 55.0735 89.6 56.0303 89.6 57.1V60C89.6 62.6895 87.4896 64.8 84.8 64.8H82V63.2H84.8C86.6105 63.2 88 61.8105 88 60V57.1C88 55.4656 88.7675 54.0301 90.1082 53.1682L90.3699 53L90.1082 52.8318C88.7693 51.971 88 50.4366 88 48.9V46C88 44.1895 86.6105 42.8 84.8 42.8Z" fill="white" stroke="white" stroke-width="0.4"/>
</svg>
