<svg width="100" height="84" viewBox="0 0 100 84" fill="none" xmlns="http://www.w3.org/2000/svg">
<path d="M11 1.5H10.5V2L10.5 16.5V17H11H90H90.5V16.5V2V1.5H90H83C82.7239 1.5 82.5 1.27614 82.5 1C82.5 0.723858 82.7239 0.5 83 0.5H90C90.8284 0.5 91.5 1.17157 91.5 2V8V8.5H92H97.5C98.3284 8.5 99 9.17157 99 10V69.5C99 70.3315 98.3198 71 97.4945 71H59.618H58.809L59.1708 71.7236L64.1708 81.7236L64.309 82H64.618H68C68.2761 82 68.5 82.2239 68.5 82.5C68.5 82.7761 68.2761 83 68 83H35C34.7239 83 34.5 82.7761 34.5 82.5C34.5 82.2239 34.7239 82 35 82H38.382H38.691L38.8292 81.7236L43.8292 71.7236L44.191 71H43.382H2.5C1.67157 71 1 70.3284 1 69.5V10C1 9.17157 1.67157 8.5 2.5 8.5H9H9.5V8V1.99878C9.5 1.16968 10.1722 0.5 11 0.5H64C64.2761 0.5 64.5 0.723858 64.5 1C64.5 1.27614 64.2761 1.5 64 1.5H11ZM2.5 9.5H2V10V56.5V57H2.5H97.5H98V56.5V10V9.5H97.5H92H91.5V10V49.5C91.5 50.3284 90.8284 51 90 51H11C10.1716 51 9.5 50.3284 9.5 49.5V10V9.5H9H2.5ZM2.5 58H2V58.5V69.5V70H2.5H97.4945H97.5054L97.5164 69.9995L97.5178 69.9995L97.6206 69.9949L97.7133 69.9502L97.7155 69.9491L97.7717 69.922L97.8196 69.8818L97.8214 69.8802L97.9999 69.7304V69.4973L98 58.5V58H97.5H2.5ZM40.1708 81.2764L39.809 82H40.618H62.382H63.191L62.8292 81.2764L57.8292 71.2764L57.691 71H57.382H45.618H45.309L45.1708 71.2764L40.1708 81.2764ZM11 18H10.5V18.5V49.5V50H11H90H90.5V49.5V18.5V18H90H11ZM58 25.5H57.5V26V40.81V41.905L58.3275 41.1879L63.8723 36.3824C64.2239 36.0777 64.7391 36.0557 65.1154 36.3293L69.603 39.593L69.9486 39.8443L70.2507 39.5422L74.3236 35.4693C74.6893 35.1036 75.2735 35.0771 75.6709 35.4082L82.6799 41.2491L83.5 41.9325V40.865V26V25.5H83H58ZM75.3815 36.4687L75.0307 36.1764L74.7078 36.4993L71.1279 40.0793L70.7407 40.4664L71.1613 40.8169L73.042 42.3841L73.181 42.5H73.3621H81.238H82.619L81.558 41.6159L75.3815 36.4687ZM69.7052 40.9052L69.6926 40.8947L69.6792 40.885L64.8485 37.3717L64.5272 37.1381L64.227 37.3983L59.3533 41.6222L58.3404 42.5H59.6807H70.238H71.619L70.558 41.6159L69.7052 40.9052ZM70 0.5H77C77.2761 0.5 77.5 0.723858 77.5 1C77.5 1.27614 77.2761 1.5 77 1.5H70C69.7239 1.5 69.5 1.27614 69.5 1C69.5 0.723858 69.7239 0.5 70 0.5ZM47.5 9.5H25C24.7239 9.5 24.5 9.27614 24.5 9C24.5 8.72386 24.7239 8.5 25 8.5H47.5C47.7761 8.5 48 8.72386 48 9C48 9.27614 47.7761 9.5 47.5 9.5ZM56.5 26C56.5 25.1716 57.1716 24.5 58 24.5H83C83.8284 24.5 84.5 25.1716 84.5 26V43C84.5 43.2761 84.2761 43.5 84 43.5H57C56.7239 43.5 56.5 43.2761 56.5 43V26ZM54.5 64.5H47.5C47.2239 64.5 47 64.2761 47 64C47 63.7239 47.2239 63.5 47.5 63.5H54.5C54.7761 63.5 55 63.7239 55 64C55 64.2761 54.7761 64.5 54.5 64.5Z" fill="white" stroke="white"/>
<circle cx="62.5" cy="8.5" r="2.5" fill="white"/>
<circle cx="64.5" cy="30.5" r="2.5" fill="white"/>
<circle cx="73.5" cy="8.5" r="2.5" fill="white"/>
<circle cx="84.5" cy="8.5" r="2.5" fill="white"/>
<path d="M25.5591 39.8711C25.7081 40.0968 25.9106 40.2824 26.1486 40.4112C26.3867 40.54 26.6529 40.6082 26.9237 40.6096C27.2469 40.6133 27.5632 40.5157 27.828 40.3306C28.1884 40.09 28.4389 39.7169 28.5252 39.2928C28.6114 38.8686 28.5262 38.4276 28.2883 38.0657L25.6085 34.0448L28.2883 30.0239C28.4819 29.6636 28.5338 29.244 28.4338 28.8475C28.3338 28.4509 28.0891 28.1059 27.7477 27.88C27.4062 27.6542 26.9925 27.5637 26.5877 27.6263C26.1829 27.6889 25.8161 27.9001 25.5591 28.2186L22.271 33.1422C22.0942 33.4101 22 33.724 22 34.0448C22 34.3657 22.0942 34.6795 22.271 34.9475L25.5591 39.8711Z" fill="white"/>
<path d="M39.1721 40.3299C39.4368 40.515 39.7531 40.6126 40.0763 40.6089C40.3471 40.6075 40.6134 40.5394 40.8514 40.4105C41.0895 40.2817 41.292 40.0962 41.4409 39.8704L44.729 34.9468C44.9058 34.6788 45 34.365 45 34.0442C45 33.7233 44.9058 33.4095 44.729 33.1415L41.4409 28.2179C41.3328 28.0167 41.1837 27.8402 41.0034 27.6998C40.823 27.5593 40.6153 27.4579 40.3934 27.4022C40.1716 27.3464 39.9406 27.3375 39.7151 27.376C39.4896 27.4145 39.2746 27.4995 39.0839 27.6256C38.8933 27.7518 38.731 27.9163 38.6076 28.1086C38.4843 28.3009 38.4024 28.5167 38.3674 28.7424C38.3324 28.9681 38.3449 29.1985 38.4042 29.4191C38.4635 29.6396 38.5682 29.8454 38.7117 30.0233L41.3916 34.0442L38.7117 38.0651C38.4738 38.4269 38.3887 38.8679 38.4749 39.2921C38.5611 39.7163 38.8117 40.0893 39.1721 40.3299Z" fill="white"/>
<path d="M31.4449 41.988C31.5814 42.004 31.7194 42.004 31.8559 41.988C32.2293 41.9998 32.5955 41.8843 32.8943 41.6606C33.1932 41.4368 33.4068 41.1182 33.5 40.7571L36.7881 28.0543C36.8971 27.6321 36.8337 27.1839 36.6117 26.8084C36.3897 26.4329 36.0273 26.1608 35.6044 26.052C35.1814 25.9432 34.7325 26.0066 34.3564 26.2282C33.9802 26.4498 33.7076 26.8115 33.5986 27.2337L30.3105 39.9365C30.2478 40.1455 30.2276 40.3649 30.2509 40.5819C30.2742 40.7988 30.3406 41.009 30.4462 41.2C30.5519 41.391 30.6946 41.5591 30.8661 41.6944C31.0375 41.8297 31.2343 41.9295 31.4449 41.988Z" fill="white"/>
</svg>
