<svg width="99" height="84" viewBox="0 0 99 84" fill="none" xmlns="http://www.w3.org/2000/svg">
<rect x="35" y="46" width="3.95918" height="3.95181" fill="white"/>
<rect x="43" y="46" width="3.95918" height="3.95181" fill="white"/>
<rect x="51" y="46" width="3.95918" height="3.95181" fill="white"/>
<path d="M1.47959 52.6192V53.1192H1.97959H54.2838V54.0951H1.97959H1.47959V54.5951V61.6727C1.47959 64.1318 3.47985 66.1245 5.94218 66.1245H59.2588H59.7588V65.6245V34.348C59.7588 32.4425 61.3066 30.8962 63.218 30.8962H77.3609H77.8609V30.3962V26.2709C77.8609 24.911 78.9656 23.8071 80.3303 23.8071H96.0102C97.3749 23.8071 98.4796 24.911 98.4796 26.2709V58.2527C98.4796 59.6125 97.3749 60.7165 96.0102 60.7165H90.8822H90.3822V61.2165V70.6672C90.3822 72.5727 88.8344 74.119 86.923 74.119H63.218C61.3067 74.119 59.7588 72.5727 59.7588 70.6672V67.6004V67.1004H59.2588H57.1398H56.6398V67.6004V82V82.5H57.1398H66.0916C66.3611 82.5 66.5796 82.7185 66.5796 82.9879C66.5796 83.2574 66.3611 83.4759 66.0916 83.4759H28.277C28.0076 83.4759 27.7891 83.2574 27.7891 82.9879C27.7891 82.7185 28.0076 82.5 28.277 82.5H37.912H38.412V82V67.6004V67.1004H37.912H5.94218C2.93796 67.1004 0.5 64.6699 0.5 61.6727V5.92771C0.5 2.93095 2.93414 0.5 5.93878 0.5H84.9434C87.9481 0.5 90.3822 2.93095 90.3822 5.92771V18.351H89.4026V5.92771C89.4026 3.46817 87.4053 1.4759 84.9434 1.4759H5.93878C3.47692 1.4759 1.47959 3.46817 1.47959 5.92771V52.6192ZM39.3916 82V82.5H39.8916H55.1602H55.6602V82V67.6004V67.1004H55.1602H39.8916H39.3916V67.6004V82ZM61.2384 67.1004H60.7384V67.6004V70.6672C60.7384 72.0355 61.8494 73.1432 63.218 73.1432H86.923C88.2916 73.1432 89.4026 72.0355 89.4026 70.6672V67.6004V67.1004H88.9026H61.2384ZM89.4026 61.2165V60.7165H88.9026H80.3303C78.9656 60.7165 77.8609 59.6125 77.8609 58.2527V32.3721V31.8721H77.3609H63.218C61.8494 31.8721 60.7384 32.9798 60.7384 34.348V65.6245V66.1245H61.2384H88.9026H89.4026V65.6245V61.2165ZM78.8405 52.6192V53.1192H79.3405H97H97.5V52.6192V32.3721V31.8721H97H79.3405H78.8405V32.3721V52.6192ZM97 30.8962H97.5V30.3962V26.2709C97.5 25.4483 96.8321 24.783 96.0102 24.783H80.3303C79.5084 24.783 78.8405 25.4483 78.8405 26.2709V30.3962V30.8962H79.3405H97ZM79.3405 54.0951H78.8405V54.5951V58.2527C78.8405 59.0753 79.5084 59.7406 80.3303 59.7406H96.0102C96.8321 59.7406 97.5 59.0753 97.5 58.2527V54.5951V54.0951H97H79.3405ZM12.1025 5.77386V6.74976H7.94438C7.3921 6.74976 6.94438 7.19748 6.94438 7.74976V11.3759H5.96479V6.27386C5.96479 5.99772 6.18865 5.77386 6.46479 5.77386H12.1025ZM68.1166 35.7158V36.6917H66.0078C65.4555 36.6917 65.0078 37.1394 65.0078 37.6917V39.9568H64.0282V36.2158C64.0282 35.9396 64.252 35.7158 64.5282 35.7158H68.1166ZM86.3894 35.7158V36.6917H84.2806C83.7284 36.6917 83.2806 37.1394 83.2806 37.6917V39.9568H82.3011V36.2158C82.3011 35.9396 82.5249 35.7158 82.8011 35.7158H86.3894Z" fill="white" stroke="white"/>
</svg>
